<?xml version="1.0" encoding="UTF-8"?>
<svg width="150px" height="24px" viewBox="0 0 150 24" version="1.1" xmlns="http://www.w3.org/2000/svg" xmlns:xlink="http://www.w3.org/1999/xlink">
    <!-- Generator: Sketch 55.2 (78181) - https://sketchapp.com -->
    <title>Protons/Branding/Logo</title>
    <desc>Created with Sketch.</desc>
    <g id="✳️-System" stroke="none" stroke-width="1" fill="none" fill-rule="evenodd">
        <g id="Protons" transform="translate(-350.000000, -5298.000000)">
            <g id="Branding" transform="translate(150.000000, 4981.000000)">
                <g id="Protons/Branding/Logo" transform="translate(200.000000, 317.000000)">
                    <g id="Group-9">
                        <polygon id="Fill-1" fill="#D20A28" points="28.5953177 6.5 35.1170569 6.5 35.1170569 0 28.5953177 0"></polygon>
                        <polygon id="Fill-2" fill="#939597" points="60.7023411 0 60.7023411 24 65.9145243 24 65.9145243 14.4133084 78.5350404 14.4133084 78.5350404 9.61231025 65.9145243 9.61231025 65.9145243 4.80299439 80.7692308 4.80299439 80.7692308 0"></polygon>
                        <polygon id="Fill-3" fill="#D20A28" points="50.1672241 6.5 56.6889632 6.5 56.6889632 0 50.1672241 0"></polygon>
                        <path d="M40.0953401,0 L26.5886288,24 L33.0778173,24 L35.8951641,18.9471408 L48.4525093,18.9471408 L51.3078046,24 L57.6923077,24 L44.3216874,0 L40.0953401,0 Z M42.2260159,6.21900603 L46.6152799,14.1930547 L37.6656565,14.1930547 L42.2260159,6.21900603 Z" id="Fill-4" fill="#D20A28"></path>
                        <polygon id="Fill-5" fill="#939597" points="107.859532 0 107.859532 24 126.923077 24 126.923077 18.9737575 113.199517 18.9737575 113.199517 0"></polygon>
                        <polygon id="Fill-6" fill="#939597" points="19.5834414 0 19.5834414 9.23435226 6.00218261 9.23435226 6.00218261 0 0 0 0 24 6.00218261 24 6.00218261 14.5946351 19.5834414 14.5946351 19.5834414 24 25.5852843 24 25.5852843 0"></polygon>
                        <polygon id="Fill-7" fill="#939597" points="84.2856599 0 84.2809365 24 104.343103 24 104.343103 18.9737575 89.5879163 18.9737575 89.5879163 14.4133084 102.069223 14.4133084 102.069223 9.61231025 89.5879163 9.61231025 89.5879163 4.80299439 104.347826 4.80033271 104.347511 0"></polygon>
                        <polygon id="Fill-8" fill="#939597" points="129.93311 0 129.93311 24 150 24 150 18.9737575 135.24159 18.9737575 135.24159 14.4133084 147.726737 14.4133084 147.726737 9.61231025 135.24159 9.61231025 135.24159 4.80033271 150 4.80033271 150 0"></polygon>
                    </g>
                </g>
            </g>
        </g>
    </g>
</svg>